<svg viewBox="0 0 1200 450" xmlns="http://www.w3.org/2000/svg" fill-rule="evenodd" clip-rule="evenodd" stroke-linejoin="round" stroke-miterlimit="1.414"><g fill="#414141"><path d="M1111.33 3.587c18.909 0 34.261 15.352 34.261 34.261V417.92H428.976V36.881c0-18.375 14.918-33.294 33.295-33.294h649.059zm3.33 28.388H459.899v378.092h654.761V31.975zM1195.8 420.324c0 14.707-11.94 26.648-26.648 26.648H405.411c-14.708 0-26.648-11.941-26.648-26.648h345.236c.642 6.697 6.292 11.941 13.156 11.941h100.253c6.864 0 12.514-5.244 13.156-11.941H1195.8z"/><path d="M821.812 140.343c31.71 13.466 53.973 44.906 53.973 81.505 0 48.848-39.658 88.507-88.506 88.507-9.889 0-19.4-1.626-28.283-4.623 3.854-3.335 8.651-7.544 13.826-12.129l22.688-20.148-2.669-.258c-1.508-.173-5.382-.432-8.653-.603-4.091-.214-5.899-.473-5.769-.818.131-.259 10.032-15.112 22-32.977l21.828-32.504-18.774-.218-18.729-.215 20.451-36.12c6.82-12.047 12.895-22.793 16.617-29.399zm-34.924-7l-.378.923c-.214.56-7.964 19.977-17.263 43.181-9.299 23.204-16.962 42.449-17.093 42.708-.172.429 3.402.56 17.093.56 16.318 0 17.307.042 17.006.732-.128.43-4.865 10.893-10.419 23.249l-10.202 22.429-5.768-5.425c-3.144-3.013-5.899-5.512-6.028-5.596-.25-.063-2.339 29.647-3.365 46.246-30.495-13.98-51.699-44.784-51.699-80.502 0-48.717 39.447-88.294 88.116-88.505z"/><g><path d="M145.455 207.503a6.53 6.53 0 0 0-6.527-6.527H11.521a6.53 6.53 0 0 0-6.528 6.527v232.941a6.531 6.531 0 0 0 6.528 6.528h127.407a6.53 6.53 0 0 0 6.527-6.528V207.503z"/><path d="M131.114 429.359h265.671v6.986H131.114z"/></g></g><!--© vulgo 2018--></svg>